<svg viewBox="0 0 104 27" fill="none" xmlns="http://www.w3.org/2000/svg"><path d="M5.386 18.286c1.468 0 2.672-.408 3.61-1.245.939-.836 1.408-1.999 1.408-3.488V3.72H7.609v9.833c0 1.224-.734 1.979-2.223 1.979-1.082 0-1.836-.45-2.285-1.347L.673 15.572c.898 1.816 2.469 2.714 4.713 2.714zm16.023-1.55c1.04-1.041 1.57-2.326 1.57-3.836 0-1.51-.53-2.774-1.57-3.815-1.04-1.04-2.326-1.57-3.835-1.57-1.51 0-2.795.53-3.836 1.57-1.04 1.04-1.55 2.305-1.55 3.815 0 1.51.51 2.795 1.55 3.835s2.326 1.55 3.836 1.55c1.51 0 2.794-.51 3.835-1.55zm-5.814-1.816c-.51-.53-.775-1.204-.775-2.02 0-.816.265-1.49.775-2.02.53-.53 1.183-.795 1.979-.795.795 0 1.448.265 1.978.795s.796 1.204.796 2.02c0 .816-.265 1.49-.796 2.02-.53.53-1.183.795-1.978.795-.796 0-1.449-.265-1.98-.795zm15.172-7.406c-1.428 0-2.53.49-3.305 1.49V3.72h-2.631V18h2.631v-1.204c.776 1 1.877 1.49 3.305 1.49 1.367 0 2.55-.51 3.51-1.55.978-1.041 1.468-2.326 1.468-3.836 0-1.51-.49-2.774-1.469-3.815-.959-1.04-2.142-1.57-3.509-1.57zm-2.509 7.467c-.53-.551-.796-1.245-.796-2.081 0-.836.266-1.53.796-2.06.53-.551 1.204-.816 2.02-.816.816 0 1.489.265 2.02.816.55.53.815 1.224.815 2.06 0 .836-.265 1.53-.816 2.08-.53.531-1.203.796-2.02.796-.815 0-1.489-.265-2.019-.795zm14.34 3.305c1.53 0 2.775-.388 3.734-1.163.959-.775 1.449-1.816 1.449-3.142 0-.816-.225-1.53-.53-2.02-.266-.489-.919-.999-1.347-1.264-.204-.143-.51-.286-.898-.429a8.36 8.36 0 00-.918-.346l-.98-.327c-1.06-.326-1.774-.632-2.161-.897-.368-.286-.551-.653-.551-1.102 0-.836.714-1.428 1.877-1.428 1.244 0 2.162.612 2.733 1.836l2.367-1.367c-.98-2.02-2.795-3.203-5.1-3.203-1.286 0-2.408.388-3.326 1.163-.918.755-1.367 1.795-1.367 3.08 0 1.306.47 2.285 1.347 2.938.898.633 1.673.939 2.958 1.326 1.163.327 1.958.633 2.407.918.449.265.673.653.673 1.163 0 .877-.714 1.51-2.285 1.51-1.632 0-2.733-.735-3.284-2.183l-2.407 1.407c.796 2.183 2.774 3.53 5.61 3.53zm17.09-4.305c.06-.387.101-.734.101-1.081 0-1.53-.49-2.795-1.468-3.835-.96-1.04-2.203-1.55-3.693-1.55-1.57 0-2.876.51-3.876 1.55-1 1.02-1.51 2.305-1.51 3.835 0 1.55.51 2.836 1.53 3.856s2.367 1.53 4.06 1.53c1.959 0 3.448-.735 4.447-2.183l-2.121-1.224c-.51.673-1.285 1.02-2.285 1.02-1.57 0-2.53-.633-2.876-1.918h7.69zm-7.732-2.04c.306-1.305 1.265-2.06 2.672-2.06 1.204 0 2.224.673 2.53 2.06h-5.202zm17.343-2.937c-.796-1-1.897-1.49-3.325-1.49-1.367 0-2.53.53-3.509 1.571-.959 1.04-1.448 2.305-1.448 3.815 0 1.51.49 2.795 1.448 3.835.98 1.04 2.142 1.55 3.509 1.55 1.428 0 2.53-.489 3.325-1.489V18h2.632V7.8h-2.632v1.204zm-4.855 5.977c-.53-.551-.796-1.245-.796-2.081 0-.836.265-1.53.796-2.06.53-.551 1.203-.816 2.02-.816.815 0 1.489.265 2.019.816.55.53.816 1.224.816 2.06 0 .836-.265 1.53-.816 2.08-.53.531-1.204.796-2.02.796-.816 0-1.489-.265-2.02-.795zM76.948 7.8h-2.631V18h2.632v-4.876c0-.979.305-1.672.938-2.1.632-.43 1.367-.592 2.162-.49V7.596c-1.387 0-2.61.653-3.1 1.958V7.8zm9.117 10.486c1.979 0 3.713-1.04 4.61-2.652l-2.284-1.306c-.408.836-1.285 1.346-2.346 1.346-.796 0-1.449-.265-1.959-.775-.51-.53-.775-1.203-.775-1.999 0-1.632 1.163-2.795 2.734-2.795 1.04 0 1.917.53 2.325 1.367l2.265-1.326c-.837-1.612-2.591-2.632-4.57-2.632-1.53 0-2.815.51-3.855 1.55-1.02 1.041-1.53 2.306-1.53 3.836 0 1.53.51 2.795 1.53 3.835 1.04 1.04 2.325 1.55 3.855 1.55zM97.74 7.514c-1.388 0-2.408.47-3.04 1.428V3.72h-2.632V18H94.7v-5.508c0-1.693.877-2.53 2.244-2.53 1.224 0 2.02.735 2.02 2.102V18h2.631v-6.263c0-1.326-.367-2.346-1.102-3.1-.714-.755-1.632-1.123-2.754-1.123z" fill="#0C4DDE"/><path fill-rule="evenodd" clip-rule="evenodd" d="M37.2 21.6h66l-66 4.8v-4.8z" fill="#00D153"/></svg>